<svg xmlns="http://www.w3.org/2000/svg" x="0px" y="0px"
width="64" height="64"
viewBox="0 0 171 171"
style=" fill:#000000;"><g fill="none" fill-rule="nonzero" stroke="none" stroke-width="1" stroke-linecap="butt" stroke-linejoin="miter" stroke-miterlimit="10" stroke-dasharray="" stroke-dashoffset="0" font-family="none" font-weight="none" font-size="none" text-anchor="none" style="mix-blend-mode: normal"><path d="M0,171.99728v-171.99728h171.99728v171.99728z" fill="none"></path><path d="M17.59864,154.39864v-136.8h136.8v136.8z" fill="#3e5996"></path><g><path d="M128.75938,141.48994l0.01352,8.9251h-86.25705v-8.9251h0.07573h61.62648h24.4656z" fill="#3e5996"></path><rect x="157.47968" y="523.15011" transform="scale(0.27046,0.27046)" width="318.32" height="17" fill="#ffffff" opacity="0.2"></rect><path d="M30.12078,57.03413c-3.25981,-0.00743 -6.51445,-0.25966 -9.73647,-0.75458c-0.4918,-0.05623 -0.91358,-0.37668 -1.09958,-0.83541c-0.186,-0.45874 -0.10649,-0.98244 0.20728,-1.3653c0.31377,-0.38286 0.81166,-0.56368 1.29799,-0.47141c18.90228,2.84792 28.9579,-3.78641 29.05797,-3.83779c0.61628,-0.3957 1.43556,-0.22888 1.84805,0.37629c0.41248,0.60517 0.26824,1.42873 -0.32537,1.85769c-0.357,0.2353 -7.54306,5.03051 -21.24986,5.03051z" fill="#ffffff" opacity="0.5"></path><path d="M30.12078,74.34342c-3.25981,-0.00743 -6.51445,-0.25966 -9.73647,-0.75458c-0.4918,-0.05623 -0.91358,-0.37668 -1.09958,-0.83541c-0.186,-0.45874 -0.10649,-0.98244 0.20728,-1.3653c0.31377,-0.38286 0.81166,-0.56368 1.29799,-0.47141c18.90228,2.84792 28.9579,-3.77288 29.05797,-3.83779c0.61628,-0.3957 1.43556,-0.22888 1.84805,0.37629c0.41248,0.60517 0.26824,1.42873 -0.32537,1.85769c-0.357,0.2353 -7.54306,5.03051 -21.24986,5.03051z" fill="#ffffff" opacity="0.5"></path><path d="M30.12078,91.65271c-3.25981,-0.00743 -6.51445,-0.25966 -9.73647,-0.75458c-0.71472,-0.13561 -1.19409,-0.81234 -1.08489,-1.53157c0.10919,-0.71923 0.76782,-1.22319 1.49058,-1.14055c18.90228,2.84792 28.9579,-3.77288 29.05797,-3.83779c0.61628,-0.3957 1.43556,-0.22888 1.84805,0.37629c0.41248,0.60517 0.26824,1.42873 -0.32537,1.85769c-0.357,0.2353 -7.54306,5.03051 -21.24986,5.03051z" fill="#ffffff" opacity="0.5"></path><path d="M140.87859,57.03413c-13.7095,0 -20.89285,-4.7844 -21.25256,-5.03051c-0.59361,-0.42896 -0.73785,-1.25252 -0.32537,-1.85769c0.41248,-0.60517 1.23177,-0.77199 1.84805,-0.37629c0.13523,0.08925 10.18814,6.6803 29.05797,3.83779c0.48633,-0.09227 0.98422,0.08855 1.29799,0.47141c0.31377,0.38286 0.39328,0.90656 0.20728,1.3653c-0.186,0.45874 -0.60778,0.77918 -1.09958,0.83541c-3.22112,0.49488 -6.47486,0.74712 -9.73377,0.75458z" fill="#ffffff" opacity="0.5"></path><path d="M140.87859,74.34342c-13.7095,0 -20.89285,-4.7844 -21.25256,-5.03051c-0.59361,-0.42896 -0.73785,-1.25252 -0.32537,-1.85769c0.41248,-0.60517 1.23177,-0.77199 1.84805,-0.37629c0.13523,0.08925 10.18814,6.6803 29.05797,3.83779c0.48633,-0.09227 0.98422,0.08855 1.29799,0.47141c0.31377,0.38286 0.39328,0.90656 0.20728,1.3653c-0.186,0.45874 -0.60778,0.77918 -1.09958,0.83541c-3.22112,0.49488 -6.47486,0.74712 -9.73377,0.75458z" fill="#ffffff" opacity="0.5"></path><path d="M140.87859,91.65271c-13.7095,0 -20.89285,-4.7844 -21.25256,-5.03051c-0.59361,-0.42896 -0.73785,-1.25252 -0.32537,-1.85769c0.41248,-0.60517 1.23177,-0.77199 1.84805,-0.37629c0.13523,0.08925 10.18814,6.6803 29.05797,3.83779c0.48633,-0.09227 0.98422,0.08855 1.29799,0.47141c0.31377,0.38286 0.39328,0.90656 0.20728,1.3653c-0.186,0.45874 -0.60778,0.77918 -1.09958,0.83541c-3.22112,0.49488 -6.47486,0.74712 -9.73377,0.75458z" fill="#ffffff" opacity="0.5"></path><g fill="#ffffff"><path d="M128.7729,151.76733h-86.25705c-0.74685,0 -1.35229,-0.60544 -1.35229,-1.35229v-8.90076c0,-0.74685 0.60544,-1.35229 1.35229,-1.35229h86.25705c0.74685,0 1.35229,0.60544 1.35229,1.35229v8.90076c0,0.74685 -0.60544,1.35229 -1.35229,1.35229zM43.86814,149.06275h83.55247v-6.19618h-83.55247z"></path><path d="M59.80621,142.84222c-0.43295,-0.00032 -0.83956,-0.20792 -1.09373,-0.5584c-0.25417,-0.35049 -0.32516,-0.80148 -0.19094,-1.2131l16.83869,-51.72232v-51.7142c-0.00024,-0.21565 0.05173,-0.42815 0.15146,-0.61935l8.78717,-17.03883c0.35866,-0.63031 1.15067,-0.86549 1.79521,-0.53306c0.64453,0.33243 0.91209,1.1141 0.60646,1.77176l-8.63571,16.74674v51.60061c0.00067,0.1425 -0.02217,0.28414 -0.06761,0.41921l-16.90631,51.92786c-0.18134,0.55615 -0.69971,0.93265 -1.28467,0.93308z"></path><path d="M111.46361,142.84222c-0.58424,-0.00005 -1.10239,-0.3753 -1.28467,-0.93037l-16.99285,-51.92786c-0.04521,-0.13605 -0.06805,-0.27854 -0.06761,-0.42191v-51.5925l-8.81421,-16.74403c-0.31493,-0.65552 -0.05502,-1.44272 0.58831,-1.78185c0.64333,-0.33913 1.43967,-0.10873 1.80253,0.52152l8.97108,17.03883c0.1027,0.1942 0.15654,0.41049 0.15687,0.63017v51.7115l16.92524,51.72232c0.11175,0.34107 0.08333,0.71258 -0.07901,1.03268c-0.16233,0.3201 -0.44526,0.56254 -0.78646,0.67391c-0.13523,0.04479 -0.27676,0.06761 -0.41921,0.06761z"></path><path d="M120.11826,47.64114h-69.23715c-0.66211,-0.0015 -1.22576,-0.48218 -1.33178,-1.13575c-0.10602,-0.65357 0.27677,-1.28778 0.90446,-1.49851l25.96393,-8.65464c0.46367,-0.17437 0.98557,-0.08126 1.36034,0.24269c0.37477,0.32395 0.54241,0.82688 0.43697,1.3109c-0.10544,0.48402 -0.4671,0.87165 -0.94266,1.01035l-18.05846,6.02039h52.65269l-17.87454,-6.02039c-0.70801,-0.23899 -1.08823,-1.00669 -0.84924,-1.7147c0.23899,-0.70801 1.00669,-1.08823 1.7147,-0.84924l25.69347,8.65464c0.62865,0.21105 1.01151,0.84681 0.90402,1.50118c-0.10749,0.65436 -0.67362,1.13423 -1.33675,1.13308z"></path><path d="M120.11826,65.22089h-69.23715c-0.66313,0.00115 -1.22926,-0.47872 -1.33675,-1.13308c-0.10749,-0.65436 0.27537,-1.29012 0.90402,-1.50118l25.69347,-8.65464c0.70801,-0.23899 1.47571,0.14122 1.7147,0.84924c0.23899,0.70801 -0.14122,1.47571 -0.84924,1.7147l-17.87454,6.02039h52.81767l-17.69063,-6.02309c-0.47443,-0.14191 -0.83335,-0.5318 -0.9356,-1.01632c-0.10226,-0.48453 0.0685,-0.9862 0.44512,-1.30772c0.37662,-0.32153 0.89887,-0.41148 1.36136,-0.23448l25.42302,8.65464c0.62488,0.21412 1.00362,0.84834 0.89579,1.50003c-0.10783,0.65168 -0.67068,1.1301 -1.33123,1.13153z"></path><path d="M120.11826,82.53017h-69.23715c-0.66313,0.00115 -1.22926,-0.47872 -1.33675,-1.13308c-0.10749,-0.65436 0.27537,-1.29012 0.90402,-1.50118l25.69347,-8.65464c0.70801,-0.23899 1.47571,0.14122 1.7147,0.84924c0.23899,0.70801 -0.14122,1.47571 -0.84924,1.7147l-17.87454,6.02039h52.81767l-17.69063,-6.02309c-0.47443,-0.14191 -0.83335,-0.5318 -0.9356,-1.01632c-0.10226,-0.48453 0.0685,-0.9862 0.44512,-1.30772c0.37662,-0.32153 0.89887,-0.41148 1.36136,-0.23448l25.42302,8.65464c0.62488,0.21412 1.00362,0.84834 0.89579,1.50003c-0.10783,0.65168 -0.67068,1.1301 -1.33123,1.13153z"></path><path d="M101.18622,116.87829h-31.37308c-0.74685,0 -1.35229,-0.60544 -1.35229,-1.35229c0,-0.74685 0.60544,-1.35229 1.35229,-1.35229h31.37308c0.74685,0 1.35229,0.60544 1.35229,1.35229c0,0.74685 -0.60544,1.35229 -1.35229,1.35229z"></path><path d="M94.42478,90.91436h-17.57975c-0.74685,0 -1.35229,-0.60544 -1.35229,-1.35229c0,-0.74685 0.60544,-1.35229 1.35229,-1.35229h17.57975c0.74685,0 1.35229,0.60544 1.35229,1.35229c0,0.74685 -0.60544,1.35229 -1.35229,1.35229z"></path><path d="M59.80621,142.84222c-0.60327,0 -1.13358,-0.39959 -1.29989,-0.97949c-0.16631,-0.57989 0.0716,-1.19981 0.58318,-1.51954l40.2468,-25.08765l-23.47302,-24.7631c-0.51383,-0.54221 -0.49082,-1.3983 0.05139,-1.91214c0.54221,-0.51383 1.3983,-0.49082 1.91214,0.05139l24.61164,25.96393c0.27864,0.29528 0.40987,0.70012 0.35745,1.10271c-0.05242,0.40259 -0.28295,0.76033 -0.62791,0.97441l-41.65047,25.96393c-0.21336,0.13335 -0.4597,0.20454 -0.7113,0.20555z"></path><path d="M111.46361,142.84222c-0.25345,0 -0.50179,-0.07122 -0.71671,-0.20555l-41.65047,-25.96393c-0.3431,-0.21426 -0.57228,-0.57086 -0.62464,-0.97196c-0.05236,-0.4011 0.07758,-0.80459 0.35418,-1.09974l24.34119,-25.96393c0.51084,-0.5452 1.36694,-0.57305 1.91214,-0.06221c0.5452,0.51084 0.57305,1.36694 0.06221,1.91214l-23.21608,24.76851l40.25491,25.09306c0.50626,0.32169 0.74011,0.93843 0.57442,1.51491c-0.16569,0.57648 -0.69133,0.97493 -1.29114,0.97871z"></path><path d="M94.42478,38.9865h-17.57975c-0.74685,0 -1.35229,-0.60544 -1.35229,-1.35229c0,-0.74685 0.60544,-1.35229 1.35229,-1.35229h17.57975c0.74685,0 1.35229,0.60544 1.35229,1.35229c0,0.74685 -0.60544,1.35229 -1.35229,1.35229z"></path><path d="M94.42478,56.56624h-17.57975c-0.74685,0 -1.35229,-0.60544 -1.35229,-1.35229c0,-0.74685 0.60544,-1.35229 1.35229,-1.35229h17.57975c0.74685,0 1.35229,0.60544 1.35229,1.35229c0,0.74685 -0.60544,1.35229 -1.35229,1.35229z"></path><path d="M94.42478,73.87553h-17.57975c-0.74685,0 -1.35229,-0.60544 -1.35229,-1.35229c0,-0.74685 0.60544,-1.35229 1.35229,-1.35229h17.57975c0.74685,0 1.35229,0.60544 1.35229,1.35229c0,0.74685 -0.60544,1.35229 -1.35229,1.35229z"></path><path d="M50.88111,56.56624c-0.74685,0 -1.35229,-0.60544 -1.35229,-1.35229v-8.9251c0,-0.74685 0.60544,-1.35229 1.35229,-1.35229c0.74685,0 1.35229,0.60544 1.35229,1.35229v8.9251c0,0.74685 -0.60544,1.35229 -1.35229,1.35229z"></path><path d="M50.88111,74.14599c-0.74685,0 -1.35229,-0.60544 -1.35229,-1.35229v-8.9251c0,-0.74685 0.60544,-1.35229 1.35229,-1.35229c0.74685,0 1.35229,0.60544 1.35229,1.35229v8.9251c0,0.74685 -0.60544,1.35229 -1.35229,1.35229z"></path><path d="M50.88111,91.45528c-0.74685,0 -1.35229,-0.60544 -1.35229,-1.35229v-8.9251c0,-0.74685 0.60544,-1.35229 1.35229,-1.35229c0.74685,0 1.35229,0.60544 1.35229,1.35229v8.9251c0,0.74685 -0.60544,1.35229 -1.35229,1.35229z"></path><path d="M120.11826,56.56624c-0.74685,0 -1.35229,-0.60544 -1.35229,-1.35229v-8.9251c0,-0.74685 0.60544,-1.35229 1.35229,-1.35229c0.74685,0 1.35229,0.60544 1.35229,1.35229v8.9251c0,0.74685 -0.60544,1.35229 -1.35229,1.35229z"></path><path d="M120.11826,74.14599c-0.74685,0 -1.35229,-0.60544 -1.35229,-1.35229v-8.9251c0,-0.74685 0.60544,-1.35229 1.35229,-1.35229c0.74685,0 1.35229,0.60544 1.35229,1.35229v8.9251c0,0.74685 -0.60544,1.35229 -1.35229,1.35229z"></path><path d="M120.11826,91.45528c-0.74685,0 -1.35229,-0.60544 -1.35229,-1.35229v-8.9251c0,-0.74685 0.60544,-1.35229 1.35229,-1.35229c0.74685,0 1.35229,0.60544 1.35229,1.35229v8.9251c0,0.74685 -0.60544,1.35229 -1.35229,1.35229z"></path></g></g><path d="M29.95339,144.99364c-1.6291,0 -2.94975,-1.32065 -2.94975,-2.94975v-112.0905c0,-1.6291 1.32065,-2.94975 2.94975,-2.94975h112.0905c1.6291,0 2.94975,1.32065 2.94975,2.94975v112.0905c0,1.6291 -1.32065,2.94975 -2.94975,2.94975z" fill="none"></path><path d="M64.15339,110.79364c-1.6291,0 -2.94975,-1.32065 -2.94975,-2.94975v-43.6905c0,-1.6291 1.32065,-2.94975 2.94975,-2.94975h43.6905c1.6291,0 2.94975,1.32065 2.94975,2.94975v43.6905c0,1.6291 -1.32065,2.94975 -2.94975,2.94975z" fill="none"></path><path d="M29.95339,144.99364c-1.6291,0 -2.94975,-1.32065 -2.94975,-2.94975v-112.0905c0,-1.6291 1.32065,-2.94975 2.94975,-2.94975h112.0905c1.6291,0 2.94975,1.32065 2.94975,2.94975v112.0905c0,1.6291 -1.32065,2.94975 -2.94975,2.94975z" fill="none"></path><path d="M60.73339,114.21364c-1.6291,0 -2.94975,-1.32065 -2.94975,-2.94975v-50.5305c0,-1.6291 1.32065,-2.94975 2.94975,-2.94975h50.5305c1.6291,0 2.94975,1.32065 2.94975,2.94975v50.5305c0,1.6291 -1.32065,2.94975 -2.94975,2.94975z" fill="none"></path><path d="M29.95339,144.99364c-1.6291,0 -2.94975,-1.32065 -2.94975,-2.94975v-112.0905c0,-1.6291 1.32065,-2.94975 2.94975,-2.94975h112.0905c1.6291,0 2.94975,1.32065 2.94975,2.94975v112.0905c0,1.6291 -1.32065,2.94975 -2.94975,2.94975z" fill="none"></path><path d="M43.63339,131.31364c-1.6291,0 -2.94975,-1.32065 -2.94975,-2.94975v-84.7305c0,-1.6291 1.32065,-2.94975 2.94975,-2.94975h84.7305c1.6291,0 2.94975,1.32065 2.94975,2.94975v84.7305c0,1.6291 -1.32065,2.94975 -2.94975,2.94975z" fill="none"></path><path d="M29.95339,144.99364c-1.6291,0 -2.94975,-1.32065 -2.94975,-2.94975v-112.0905c0,-1.6291 1.32065,-2.94975 2.94975,-2.94975h112.0905c1.6291,0 2.94975,1.32065 2.94975,2.94975v112.0905c0,1.6291 -1.32065,2.94975 -2.94975,2.94975z" fill="none"></path><path d="M40.21339,134.73364c-1.6291,0 -2.94975,-1.32065 -2.94975,-2.94975v-91.5705c0,-1.6291 1.32065,-2.94975 2.94975,-2.94975h91.5705c1.6291,0 2.94975,1.32065 2.94975,2.94975v91.5705c0,1.6291 -1.32065,2.94975 -2.94975,2.94975z" fill="none"></path><path d="M29.95339,144.99364c-1.6291,0 -2.94975,-1.32065 -2.94975,-2.94975v-112.0905c0,-1.6291 1.32065,-2.94975 2.94975,-2.94975h112.0905c1.6291,0 2.94975,1.32065 2.94975,2.94975v112.0905c0,1.6291 -1.32065,2.94975 -2.94975,2.94975z" fill="none"></path><path d="M36.79339,138.15364c-1.6291,0 -2.94975,-1.32065 -2.94975,-2.94975v-98.4105c0,-1.6291 1.32065,-2.94975 2.94975,-2.94975h98.4105c1.6291,0 2.94975,1.32065 2.94975,2.94975v98.4105c0,1.6291 -1.32065,2.94975 -2.94975,2.94975z" fill="none"></path><path d="M29.95339,144.99364c-1.6291,0 -2.94975,-1.32065 -2.94975,-2.94975v-112.0905c0,-1.6291 1.32065,-2.94975 2.94975,-2.94975h112.0905c1.6291,0 2.94975,1.32065 2.94975,2.94975v112.0905c0,1.6291 -1.32065,2.94975 -2.94975,2.94975z" fill="none"></path><path d="M33.37339,141.57364c-1.6291,0 -2.94975,-1.32065 -2.94975,-2.94975v-105.2505c0,-1.6291 1.32065,-2.94975 2.94975,-2.94975h105.2505c1.6291,0 2.94975,1.32065 2.94975,2.94975v105.2505c0,1.6291 -1.32065,2.94975 -2.94975,2.94975z" fill="none"></path></g></svg>